<svg width="15" height="15" viewBox="0 0 15 16" fill="none" xmlns="http://www.w3.org/2000/svg">
<path fill-rule="evenodd" clip-rule="evenodd" d="M3.28394 4.70799C3.68794 3.74199 4.40694 2.94899 5.33594 2.45899C5.47494 1.38799 6.39094 0.55899 7.50294 0.55899C8.61494 0.55899 9.53194 1.38799 9.66994 2.45899C10.5999 2.94899 11.3209 3.74199 11.7279 4.70799C11.7279 4.70799 12.2219 5.65399 12.3629 7.23499C12.4089 7.74499 12.5949 8.50799 12.8529 9.00799C13.1729 9.62799 13.9419 10.682 14.0359 11.826C14.0559 11.933 14.0659 12.041 14.0659 12.151C14.0659 12.454 13.9899 12.748 13.8469 13.027C13.8419 13.038 13.8369 13.049 13.8319 13.06C13.7479 13.248 13.6699 13.363 13.5969 13.418C12.6289 14.674 10.2649 15.56 7.50294 15.56C4.73294 15.56 2.36394 14.669 1.40094 13.408C1.33594 13.352 1.26594 13.248 1.19094 13.087C1.02794 12.79 0.939941 12.476 0.939941 12.151C0.939941 12.028 0.953941 11.907 0.978941 11.788C1.08694 10.658 1.84194 9.62099 2.15794 9.00799C2.41594 8.50799 2.60194 7.74499 2.64794 7.23499C2.78994 5.65399 3.28394 4.70799 3.28394 4.70799ZM7.50294 14.062C4.93594 14.062 2.66294 13.191 2.66294 12.287C2.66294 11.661 3.85594 11.117 5.32494 10.842C5.42194 11.957 6.35994 12.833 7.50294 12.833C8.64694 12.833 9.58394 11.957 9.68094 10.842C11.1499 11.117 12.3439 11.661 12.3439 12.287C12.3439 13.191 10.0709 14.062 7.50294 14.062Z" fill="#cfcfcf"/>
</svg>
